PathFileType	4	(X/Y/Z)	rand1.trc
DataRate	CameraRate	NumFrames	NumMarkers	Units	OrigDataRate	OrigDataStartFrame	OrigNumFrames
100.0	100.0	5	17	mm	100.0	515	1373
Frame#	Time	STER			XIPH			T10			T1			CLAV_SC			CLAV_AC			SCAP_AA			SCAP_CP			SCAP_TS			SCAP_IA			DELT			ARMl			EPICm			EPICl			LARM_elb			STYLr			STYLu		
		X1	Y1	Z1	X2	Y2	Z2	X3	Y3	Z3	X4	Y4	Z4	X5	Y5	Z5	X6	Y6	Z6	X7	Y7	Z7	X8	Y8	Z8	X9	Y9	Z9	X10	Y10	Z10	X11	Y11	Z11	X12	Y12	Z12	X13	Y13	Z13	X14	Y14	Z14	X15	Y15	Z15	X16	Y16	Z16	X17	Y17	Z17

515	5.14	406.73345947265625	79.27265930175781	1432.7821044921875	404.74884033203125	132.19732666015625	1271.587646484375	367.9756774902344	-95.2441635131836	1238.4747314453125	368.9903564453125	-75.08446502685547	1472.05322265625	443.1941223144531	67.49762725830078	1436.5379638671875	582.8231811523438	-23.708906173706055	1448.0556640625	578.7315063476562	-69.53474426269531	1431.5546875	523.8292236328125	-68.87053680419922	1465.564208984375	495.32354736328125	-122.0775375366211	1413.50634765625	466.50811767578125	-129.43728637695312	1273.6717529296875	635.7266235351562	-64.01395416259766	1294.139892578125	646.8331909179688	-80.98893737792969	1247.3651123046875	613.2846069335938	-46.97733688354492	1084.9549560546875	689.4647216796875	-102.36072540283203	1135.398681640625	628.3975830078125	-94.85211944580078	1082.037109375	842.7305908203125	-22.02574920654297	915.7465209960938	770.0789794921875	-37.55236053466797	881.7689819335938
516	5.15	406.1622314453125	79.0940933227539	1432.6236572265625	404.7440185546875	132.0149383544922	1271.5789794921875	368.05133056640625	-95.43079376220703	1238.4742431640625	369.1673583984375	-75.3121337890625	1472.0377197265625	443.0835266113281	67.40739440917969	1436.247314453125	582.9583129882812	-23.571697235107422	1447.98388671875	578.7648315429688	-69.4426040649414	1431.43359375	523.9893798828125	-68.80410766601562	1465.472412109375	495.6083984375	-122.10277557373047	1413.560791015625	466.7359924316406	-129.4619598388672	1273.7239990234375	634.9597778320312	-63.631099700927734	1293.63916015625	647.0203857421875	-80.44889068603516	1247.1229248046875	616.331298828125	-46.82928466796875	1085.4140625	689.7052612304688	-101.48478698730469	1135.096923828125	628.8678588867188	-93.93980407714844	1081.6395263671875	843.210693359375	-19.196203231811523	916.350341796875	770.6127319335938	-34.388729095458984	882.0966796875
517	5.16	406.5464782714844	78.94567108154297	1432.8133544921875	404.620849609375	131.8426971435547	1271.5482177734375	368.1217041015625	-95.66063690185547	1238.495361328125	369.3414611816406	-75.55740356445312	1472.0302734375	443.00701904296875	67.25128936767578	1436.51220703125	583.0653076171875	-23.437803268432617	1447.90673828125	579.1062622070312	-69.25502014160156	1431.37548828125	524.2471313476562	-68.72003936767578	1465.4542236328125	495.8431701660156	-122.11742401123047	1413.5450439453125	466.9471130371094	-129.4702911376953	1273.717529296875	635.3087768554688	-63.20753860473633	1293.4881591796875	647.3257446289062	-79.8822021484375	1246.9892578125	613.9287719726562	-45.26019287109375	1084.638916015625	690.2274169921875	-100.4836654663086	1134.802978515625	629.3809204101562	-92.95979309082031	1081.2188720703125	843.75390625	-16.250051498413086	917.055419921875	771.2456665039062	-31.1134033203125	882.5004272460938
518	5.17	406.44207763671875	78.78962707519531	1432.7999267578125	404.5204772949219	131.64129638671875	1271.506591796875	368.1932678222656	-95.84715270996094	1238.5069580078125	369.5710144042969	-75.80365753173828	1471.9949951171875	442.9029846191406	67.14232635498047	1436.498291015625	583.17919921875	-23.281078338623047	1447.8892822265625	579.3804931640625	-69.05918884277344	1431.3369140625	524.4069213867188	-68.64069366455078	1465.377685546875	496.2279357910156	-122.12699890136719	1413.413818359375	467.20166015625	-129.49932861328125	1273.7977294921875	636.2144775390625	-62.744319915771484	1293.6802978515625	647.4743041992188	-79.2595443725586	1246.7060546875	614.11376953125	-44.43433380126953	1084.5235595703125	690.6203002929688	-99.37295532226562	1134.539306640625	629.9244995117188	-91.87408447265625	1080.8011474609375	844.3431396484375	-13.158928871154785	917.7644653320312	771.82373046875	-27.529685974121094	882.91552734375
519	5.18	406.3053894042969	78.61027526855469	1432.7957763671875	404.27313232421875	131.42202758789062	1271.547119140625	368.2973937988281	-96.090576171875	1238.5162353515625	369.7448425292969	-76.07266235351562	1471.9661865234375	442.4089050292969	66.91661834716797	1436.1934814453125	583.2965087890625	-23.093534469604492	1447.810791015625	579.42919921875	-68.95059204101562	1431.2196044921875	524.810791015625	-68.52590942382812	1465.428466796875	496.4966125488281	-122.12197875976562	1413.465087890625	467.5128173828125	-129.5049591064453	1273.817138671875	636.3853149414062	-62.2384147644043	1293.545654296875	647.6022338867188	-78.61285400390625	1246.5150146484375	614.5346069335938	-43.39022445678711	1084.513427734375	690.9163208007812	-98.18408203125	1134.2672119140625	630.4606323242188	-90.7123031616211	1080.4171142578125	844.9569702148438	-9.894375801086426	918.5936889648438	772.5567016601562	-23.74226188659668	883.4340209960938
